<svg xmlns="http://www.w3.org/2000/svg" xmlns:xlink="http://www.w3.org/1999/xlink" zoomAndPan="magnify" preserveAspectRatio="xMidYMid meet" version="1.0" viewBox="1.75 15.73 368.16 74.44"><defs><g/></defs><g fill="#102158" fill-opacity="1"><g transform="translate(1.841217, 89.370353)"><g><path d="M 54.6875 -17.375 L 17.765625 -17.375 L 10.125 0 L -0.09375 0 L 31.359375 -69.46875 L 41.1875 -69.46875 L 72.75 0 L 62.328125 0 Z M 51.21875 -25.3125 L 36.21875 -59.34375 L 21.234375 -25.3125 Z M 51.21875 -25.3125 "/></g></g></g><g fill="#102158" fill-opacity="1"><g transform="translate(68.52362, 89.370353)"><g><path d="M 31.953125 0.59375 C 26.597656 0.59375 21.816406 -0.5625 17.609375 -2.875 C 13.410156 -5.195312 10.117188 -8.390625 7.734375 -12.453125 C 5.359375 -16.523438 4.171875 -21.140625 4.171875 -26.296875 C 4.171875 -31.460938 5.359375 -36.078125 7.734375 -40.140625 C 10.117188 -44.210938 13.410156 -47.390625 17.609375 -49.671875 C 21.816406 -51.953125 26.597656 -53.09375 31.953125 -53.09375 C 36.722656 -53.09375 40.972656 -52.132812 44.703125 -50.21875 C 48.441406 -48.300781 51.335938 -45.523438 53.390625 -41.890625 L 46.15625 -37.21875 C 44.5 -39.726562 42.445312 -41.613281 40 -42.875 C 37.550781 -44.132812 34.835938 -44.765625 31.859375 -44.765625 C 28.421875 -44.765625 25.328125 -44.003906 22.578125 -42.484375 C 19.828125 -40.960938 17.675781 -38.796875 16.125 -35.984375 C 14.570312 -33.171875 13.796875 -29.941406 13.796875 -26.296875 C 13.796875 -22.597656 14.570312 -19.34375 16.125 -16.53125 C 17.675781 -13.71875 19.828125 -11.546875 22.578125 -10.015625 C 25.328125 -8.492188 28.421875 -7.734375 31.859375 -7.734375 C 34.835938 -7.734375 37.550781 -8.363281 40 -9.625 C 42.445312 -10.882812 44.5 -12.769531 46.15625 -15.28125 L 53.390625 -10.71875 C 51.335938 -7.082031 48.441406 -4.285156 44.703125 -2.328125 C 40.972656 -0.378906 36.722656 0.59375 31.953125 0.59375 Z M 31.953125 0.59375 "/></g></g></g><g fill="#102158" fill-opacity="1"><g transform="translate(119.229771, 89.370353)"><g><path d="M 38.609375 -3.078125 C 37.222656 -1.890625 35.503906 -0.976562 33.453125 -0.34375 C 31.398438 0.28125 29.28125 0.59375 27.09375 0.59375 C 21.800781 0.59375 17.695312 -0.828125 14.78125 -3.671875 C 11.875 -6.515625 10.421875 -10.582031 10.421875 -15.875 L 10.421875 -44.765625 L 1.484375 -44.765625 L 1.484375 -52.609375 L 10.421875 -52.609375 L 10.421875 -64.109375 L 19.953125 -64.109375 L 19.953125 -52.609375 L 35.03125 -52.609375 L 35.03125 -44.765625 L 19.953125 -44.765625 L 19.953125 -16.28125 C 19.953125 -13.4375 20.660156 -11.25 22.078125 -9.71875 C 23.503906 -8.195312 25.539062 -7.4375 28.1875 -7.4375 C 31.09375 -7.4375 33.570312 -8.265625 35.625 -9.921875 Z M 38.609375 -3.078125 "/></g></g></g><g fill="#102158" fill-opacity="1"><g transform="translate(154.364844, 89.370353)"><g><path d="M 59.25 -36.125 C 63.21875 -34.863281 66.328125 -32.757812 68.578125 -29.8125 C 70.828125 -26.875 71.953125 -23.253906 71.953125 -18.953125 C 71.953125 -12.867188 69.585938 -8.1875 64.859375 -4.90625 C 60.128906 -1.632812 53.234375 0 44.171875 0 L 8.234375 0 L 8.234375 -69.46875 L 42.1875 -69.46875 C 50.65625 -69.46875 57.15625 -67.847656 61.6875 -64.609375 C 66.21875 -61.367188 68.484375 -56.96875 68.484375 -51.40625 C 68.484375 -48.03125 67.671875 -45.019531 66.046875 -42.375 C 64.429688 -39.726562 62.164062 -37.644531 59.25 -36.125 Z M 24.21875 -57.359375 L 24.21875 -40.984375 L 40.203125 -40.984375 C 44.171875 -40.984375 47.179688 -41.675781 49.234375 -43.0625 C 51.285156 -44.457031 52.3125 -46.515625 52.3125 -49.234375 C 52.3125 -51.941406 51.285156 -53.972656 49.234375 -55.328125 C 47.179688 -56.679688 44.171875 -57.359375 40.203125 -57.359375 Z M 42.96875 -12.109375 C 47.207031 -12.109375 50.398438 -12.800781 52.546875 -14.1875 C 54.703125 -15.582031 55.78125 -17.734375 55.78125 -20.640625 C 55.78125 -26.398438 51.507812 -29.28125 42.96875 -29.28125 L 24.21875 -29.28125 L 24.21875 -12.109375 Z M 42.96875 -12.109375 "/></g></g></g><g fill="#102158" fill-opacity="1"><g transform="translate(224.321873, 89.370353)"><g><path d="M 7.140625 -73.640625 L 22.625 -73.640625 L 22.625 0 L 7.140625 0 Z M 7.140625 -73.640625 "/></g></g></g><g fill="#102158" fill-opacity="1"><g transform="translate(248.235556, 89.370353)"><g><path d="M 60.9375 -53.390625 L 60.9375 0 L 46.25 0 L 46.25 -6.359375 C 44.195312 -4.035156 41.75 -2.257812 38.90625 -1.03125 C 36.0625 0.1875 32.984375 0.796875 29.671875 0.796875 C 22.660156 0.796875 17.101562 -1.21875 13 -5.25 C 8.894531 -9.289062 6.84375 -15.28125 6.84375 -23.21875 L 6.84375 -53.390625 L 22.328125 -53.390625 L 22.328125 -25.5 C 22.328125 -16.90625 25.9375 -12.609375 33.15625 -12.609375 C 36.851562 -12.609375 39.828125 -13.8125 42.078125 -16.21875 C 44.328125 -18.632812 45.453125 -22.226562 45.453125 -27 L 45.453125 -53.390625 Z M 60.9375 -53.390625 "/></g></g></g><g fill="#102158" fill-opacity="1"><g transform="translate(310.452555, 89.370353)"><g><path d="M 59.453125 -26.5 C 59.453125 -26.300781 59.351562 -24.910156 59.15625 -22.328125 L 18.765625 -22.328125 C 19.484375 -19.023438 21.195312 -16.410156 23.90625 -14.484375 C 26.625 -12.566406 30.003906 -11.609375 34.046875 -11.609375 C 36.828125 -11.609375 39.289062 -12.019531 41.4375 -12.84375 C 43.582031 -13.675781 45.582031 -14.984375 47.4375 -16.765625 L 55.671875 -7.84375 C 50.648438 -2.082031 43.304688 0.796875 33.640625 0.796875 C 27.617188 0.796875 22.289062 -0.375 17.65625 -2.71875 C 13.03125 -5.070312 9.457031 -8.332031 6.9375 -12.5 C 4.425781 -16.675781 3.171875 -21.410156 3.171875 -26.703125 C 3.171875 -31.921875 4.410156 -36.628906 6.890625 -40.828125 C 9.378906 -45.035156 12.789062 -48.3125 17.125 -50.65625 C 21.457031 -53.007812 26.300781 -54.1875 31.65625 -54.1875 C 36.882812 -54.1875 41.613281 -53.0625 45.84375 -50.8125 C 50.082031 -48.5625 53.410156 -45.335938 55.828125 -41.140625 C 58.242188 -36.941406 59.453125 -32.0625 59.453125 -26.5 Z M 31.765625 -42.484375 C 28.253906 -42.484375 25.304688 -41.488281 22.921875 -39.5 C 20.546875 -37.519531 19.09375 -34.804688 18.5625 -31.359375 L 44.859375 -31.359375 C 44.328125 -34.734375 42.867188 -37.429688 40.484375 -39.453125 C 38.109375 -41.472656 35.203125 -42.484375 31.765625 -42.484375 Z M 31.765625 -42.484375 "/></g></g></g></svg>