<svg width="420" height="93" viewBox="0 0 420 93" fill="none" xmlns="http://www.w3.org/2000/svg">
<path d="M409.625 92.4313C399.217 92.4313 389.395 87.7525 389.395 76.465V3.92621H404.565V25.1277H420V39.1144H404.565V74.4712C404.565 76.554 406.157 78.2327 408.599 78.2327H420V92.4313H409.625Z" fill="#1662F5"/>
<path fill-rule="evenodd" clip-rule="evenodd" d="M346.587 78.3618C357.991 78.3618 367.236 69.221 367.236 57.9454C367.236 46.6697 357.991 37.5289 346.587 37.5289C335.183 37.5289 325.938 46.6697 325.938 57.9454C325.938 69.221 335.183 78.3618 346.587 78.3618ZM346.587 92.9999C366.168 92.9999 382.041 77.3055 382.041 57.9454C382.041 38.5852 366.168 22.8908 346.587 22.8908C327.006 22.8908 311.133 38.5852 311.133 57.9454C311.133 77.3055 327.006 92.9999 346.587 92.9999Z" fill="#1662F5"/>
<path fill-rule="evenodd" clip-rule="evenodd" d="M303.779 3.78237H288.609V29.6091C283.398 25.5462 275.437 23.327 269.039 23.3128C248.719 23.3128 233.4 38.4043 233.4 58.4417C234.028 76.9042 249.242 92.7224 268.164 93C284.958 93 303.759 80.0397 303.759 57.9978C303.759 35.956 303.779 3.78237 303.779 3.78237ZM268.508 37.3263C279.743 37.3263 288.951 47.0267 288.984 57.9978C289.104 69.2621 279.816 79.1303 268.257 78.9865C257.037 78.6755 248.214 69.0444 248.219 58.093C248.297 47.3444 257.349 37.3263 268.508 37.3263Z" fill="#1662F5"/>
<path d="M192.669 92.9373C174.235 92.3602 159.04 77.1391 158.697 58.9062C158.697 39.0995 173.466 23.6136 192.318 23.6136C213.662 23.6136 230.478 41.9196 226.29 65.0249H174.391C176.845 73.1353 184.555 78.8884 193.116 78.9969C199.478 79.0432 205.574 75.8246 209.074 70.5759H224.855C220.032 83.8538 206.938 92.9509 192.669 92.9373ZM211.521 52.7876C209.757 44.0117 201.719 37.5165 192.669 37.5541C183.723 37.6796 175.844 44.1226 174.04 52.7876H211.521Z" fill="#1662F5"/>
<path fill-rule="evenodd" clip-rule="evenodd" d="M120.697 36.721C111.731 36.721 104.462 43.9077 104.462 52.773V91.3066H89.2225V54.348C89.2225 37.1608 103.314 23.2278 120.697 23.2278C138.08 23.2278 152.172 37.1608 152.172 54.348V91.3066H136.932V52.773C136.932 43.9077 129.663 36.721 120.697 36.721Z" fill="#1662F5"/>
<path fill-rule="evenodd" clip-rule="evenodd" d="M22.2348 67.6948L15.423 91.2588H0L22.4956 14.3056C24.973 5.8306 32.7933 0 41.6829 0C50.5725 0 58.3928 5.8306 60.8703 14.3056L83.3658 91.2588H67.9428L61.131 67.6948C54.8996 69.2318 48.3838 70.0466 41.6829 70.0466C34.982 70.0466 28.4662 69.2318 22.2348 67.6948ZM36.7207 17.5836C37.3614 15.3918 39.3839 13.8839 41.6829 13.8839C43.9819 13.8839 46.0044 15.3918 46.6451 17.5836L57.3548 54.6318C52.3347 55.8327 47.0876 56.47 41.6829 56.47C36.2783 56.47 31.0311 55.8327 26.011 54.6318L36.7207 17.5836Z" fill="#1662F5"/>
</svg>
